<svg width="46" height="46" viewBox="0 0 46 46" fill="none" xmlns="http://www.w3.org/2000/svg">
<rect x="3" y="3" width="40" height="40" rx="20" fill="#F2F4F7"/>
<g clip-path="url(#clip0_1269_19244)">
<path d="M26.3333 26.3332L23 22.9999M23 22.9999L19.6666 26.3332M23 22.9999V30.4999M29.9916 28.3249C30.8044 27.8818 31.4465 27.1806 31.8165 26.3321C32.1866 25.4835 32.2635 24.5359 32.0351 23.6388C31.8068 22.7417 31.2862 21.9462 30.5555 21.3778C29.8248 20.8094 28.9257 20.5005 28 20.4999H26.95C26.6977 19.5243 26.2276 18.6185 25.5749 17.8507C24.9222 17.0829 24.104 16.4731 23.1817 16.0671C22.2594 15.661 21.2571 15.4694 20.2501 15.5065C19.243 15.5436 18.2575 15.8085 17.3676 16.2813C16.4777 16.7541 15.7066 17.4225 15.1122 18.2362C14.5177 19.05 14.1155 19.9879 13.9358 20.9794C13.756 21.9709 13.8034 22.9903 14.0743 23.961C14.3452 24.9316 14.8327 25.8281 15.5 26.5832" stroke="#475467" stroke-width="1.66667" stroke-linecap="round" stroke-linejoin="round"/>
</g>
<rect x="3" y="3" width="40" height="40" rx="20" stroke="#F9FAFB" stroke-width="6"/>
<defs>
<clipPath id="clip0_1269_19244">
<rect width="20" height="20" fill="white" transform="translate(13 13)"/>
</clipPath>
</defs>
</svg>
