<svg width="15" height="14" viewBox="0 0 15 14" fill="none" xmlns="http://www.w3.org/2000/svg">
<path fill-rule="evenodd" clip-rule="evenodd" d="M1.5 0C0.671573 0 0 0.671573 0 1.5V12.5C0 13.3284 0.671573 14 1.5 14C2.32843 14 3 13.3284 3 12.5V7.00065C3.00021 7.44261 3.21073 7.88448 3.63158 8.13702L13.1053 13.8221C13.9474 14.3275 15 13.6958 15 12.6851L15 1.31488C15 0.304194 13.9474 -0.327487 13.1053 0.177857L3.63158 5.86298C3.21073 6.11553 3.00021 6.55739 3 6.99935V1.5C3 0.671573 2.32843 0 1.5 0Z" fill="black"/>
</svg>
