<svg width="15" height="14" viewBox="0 0 15 14" fill="none" xmlns="http://www.w3.org/2000/svg">
<path fill-rule="evenodd" clip-rule="evenodd" d="M13.5 0C14.3284 0 15 0.671573 15 1.5V12.5C15 13.3284 14.3284 14 13.5 14C12.6716 14 12 13.3284 12 12.5V7.00065C11.9998 7.44261 11.7893 7.88448 11.3684 8.13702L1.89474 13.8221C1.05263 14.3275 -9.53674e-07 13.6958 -9.53674e-07 12.6851L0 1.31488C0 0.304194 1.05263 -0.327487 1.89474 0.177857L11.3684 5.86298C11.7893 6.11553 11.9998 6.55739 12 6.99935V1.5C12 0.671573 12.6716 0 13.5 0Z" fill="black"/>
</svg>
